<svg xmlns="http://www.w3.org/2000/svg" width="600" height="400" viewBox="0 0 600 400">
  <style>
    .st0{fill:#3B82F6;} /* blue-500 */
    .st1{fill:#60A5FA;} /* blue-400 */
    .st2{fill:#F3F4F6;} /* gray-100 */
    .st3{fill:#9CA3AF;} /* gray-400 */
    .st4{fill:#1F2937;} /* gray-800 */
    .st5{fill:#FFFFFF;} /* white */
    .st6{fill:#2563EB;} /* blue-600 */
    .st7{fill:#E5E7EB;} /* gray-200 */
  </style>
  <rect class="st2" width="600" height="400"/>
  
  <!-- City skyline -->
  <path class="st7" d="M0,250 L50,270 L100,250 L150,260 L200,240 L250,250 L300,230 L350,250 L400,240 L450,260 L500,240 L550,250 L600,230 L600,400 L0,400 Z"/>
  
  <!-- Buildings -->
  <rect class="st3" x="50" y="150" width="40" height="230"/>
  <rect class="st3" x="150" y="200" width="50" height="180"/>
  <rect class="st3" x="250" y="170" width="60" height="210"/>
  <rect class="st3" x="350" y="220" width="30" height="160"/>
  <rect class="st3" x="420" y="190" width="40" height="190"/>
  <rect class="st3" x="500" y="180" width="50" height="200"/>
  
  <!-- Windows -->
  <rect class="st5" x="60" y="170" width="10" height="10"/>
  <rect class="st5" x="60" y="200" width="10" height="10"/>
  <rect class="st5" x="60" y="230" width="10" height="10"/>
  <rect class="st5" x="60" y="260" width="10" height="10"/>
  <rect class="st5" x="60" y="290" width="10" height="10"/>
  
  <rect class="st5" x="70" y="170" width="10" height="10"/>
  <rect class="st5" x="70" y="200" width="10" height="10"/>
  <rect class="st5" x="70" y="230" width="10" height="10"/>
  <rect class="st5" x="70" y="260" width="10" height="10"/>
  <rect class="st5" x="70" y="290" width="10" height="10"/>
  
  <!-- Courier -->
  <circle class="st5" cx="300" cy="320" r="40"/>
  <circle class="st0" cx="300" cy="280" r="20"/>
  <path class="st4" d="M280,320 L320,320 L340,380 L260,380 Z"/>
  <circle class="st3" cx="260" cy="380" r="20"/>
  <circle class="st3" cx="340" cy="380" r="20"/>
  
  <!-- Package -->
  <rect class="st6" x="280" cy="330" width="40" height="30"/>
  <path class="st0" d="M280,330 L300,340 L320,330"/>
  <path class="st0" d="M300,340 L300,360"/>
</svg>