<svg xmlns="http://www.w3.org/2000/svg" width="800" height="400" viewBox="0 0 800 400">
  <style>
    .st0{fill:#EFF6FF;} /* blue-50 */
    .st1{fill:#DBEAFE;} /* blue-100 */
    .st2{fill:#93C5FD;} /* blue-300 */
    .dot{fill:#9CA3AF;opacity:0.5;} /* gray-400 */
  </style>
  <rect class="st0" width="800" height="400"/>
  
  <!-- Background pattern -->
  <circle class="dot" cx="40" cy="40" r="4"/>
  <circle class="dot" cx="120" cy="40" r="4"/>
  <circle class="dot" cx="200" cy="40" r="4"/>
  <circle class="dot" cx="280" cy="40" r="4"/>
  <circle class="dot" cx="360" cy="40" r="4"/>
  <circle class="dot" cx="440" cy="40" r="4"/>
  <circle class="dot" cx="520" cy="40" r="4"/>
  <circle class="dot" cx="600" cy="40" r="4"/>
  <circle class="dot" cx="680" cy="40" r="4"/>
  <circle class="dot" cx="760" cy="40" r="4"/>
  
  <circle class="dot" cx="40" cy="120" r="4"/>
  <circle class="dot" cx="120" cy="120" r="4"/>
  <circle class="dot" cx="200" cy="120" r="4"/>
  <circle class="dot" cx="280" cy="120" r="4"/>
  <circle class="dot" cx="360" cy="120" r="4"/>
  <circle class="dot" cx="440" cy="120" r="4"/>
  <circle class="dot" cx="520" cy="120" r="4"/>
  <circle class="dot" cx="600" cy="120" r="4"/>
  <circle class="dot" cx="680" cy="120" r="4"/>
  <circle class="dot" cx="760" cy="120" r="4"/>
  
  <circle class="dot" cx="40" cy="200" r="4"/>
  <circle class="dot" cx="120" cy="200" r="4"/>
  <circle class="dot" cx="200" cy="200" r="4"/>
  <circle class="dot" cx="280" cy="200" r="4"/>
  <circle class="dot" cx="360" cy="200" r="4"/>
  <circle class="dot" cx="440" cy="200" r="4"/>
  <circle class="dot" cx="520" cy="200" r="4"/>
  <circle class="dot" cx="600" cy="200" r="4"/>
  <circle class="dot" cx="680" cy="200" r="4"/>
  <circle class="dot" cx="760" cy="200" r="4"/>
  
  <circle class="dot" cx="40" cy="280" r="4"/>
  <circle class="dot" cx="120" cy="280" r="4"/>
  <circle class="dot" cx="200" cy="280" r="4"/>
  <circle class="dot" cx="280" cy="280" r="4"/>
  <circle class="dot" cx="360" cy="280" r="4"/>
  <circle class="dot" cx="440" cy="280" r="4"/>
  <circle class="dot" cx="520" cy="280" r="4"/>
  <circle class="dot" cx="600" cy="280" r="4"/>
  <circle class="dot" cx="680" cy="280" r="4"/>
  <circle class="dot" cx="760" cy="280" r="4"/>
  
  <circle class="dot" cx="40" cy="360" r="4"/>
  <circle class="dot" cx="120" cy="360" r="4"/>
  <circle class="dot" cx="200" cy="360" r="4"/>
  <circle class="dot" cx="280" cy="360" r="4"/>
  <circle class="dot" cx="360" cy="360" r="4"/>
  <circle class="dot" cx="440" cy="360" r="4"/>
  <circle class="dot" cx="520" cy="360" r="4"/>
  <circle class="dot" cx="600" cy="360" r="4"/>
  <circle class="dot" cx="680" cy="360" r="4"/>
  <circle class="dot" cx="760" cy="360" r="4"/>
  
  <!-- Decorative elements -->
  <path class="st1" d="M0,300 Q400,200 800,300 L800,400 L0,400 Z"/>
  <path class="st2" d="M0,350 Q200,320 400,350 Q600,380 800,350 L800,400 L0,400 Z"/>
</svg>